<?xml version="1.0" encoding="utf-8"?>
<svg viewBox="0 0 15 12.5" fill="rgb(12, 74, 110)" xmlns="http://www.w3.org/2000/svg">
  <circle cx="4.5" cy="2.5" r=".6" />
  <circle cx="4.5" cy="4.5" r=".6" />
  <circle cx="4.5" cy="6.5" r=".6" />
  <circle cx="4.5" cy="8.5" r=".6" />
  <circle cx="4.5" cy="10.5" r=".6" />
  <circle cx="6.5" cy="2.5" r=".6" />
  <circle cx="6.5" cy="4.5" r=".6" />
  <circle cx="6.5" cy="6.5" r=".6" />
  <circle cx="6.5" cy="8.5" r=".6" />
  <circle cx="6.5" cy="10.5" r=".6" />
  <circle cx="8.5" cy="2.5" r=".6" />
  <circle cx="8.5" cy="4.5" r=".6" />
  <circle cx="8.5" cy="6.5" r=".6" />
  <circle cx="8.5" cy="8.5" r=".6" />
  <circle cx="8.5" cy="10.5" r=".6" />
  <circle cx="10.5" cy="2.5" r=".6" />
  <circle cx="10.5" cy="4.5" r=".6" />
  <circle cx="10.5" cy="6.5" r=".6" />
  <circle cx="10.5" cy="8.5" r=".6" />
  <circle cx="10.5" cy="10.5" r=".6" />
</svg>